<svg width="30" height="23" viewBox="0 0 30 23" fill="none" xmlns="http://www.w3.org/2000/svg">
<path d="M28.7913 13.6325C28.4642 13.3805 28.0894 13.1977 27.6894 13.0951C27.2895 12.9926 26.8729 12.9726 26.465 13.0362C28.8125 10.6662 30 8.31 30 6C30 2.69125 27.3387 -4.78429e-06 24.0675 -4.78429e-06C23.1995 -0.00545563 22.3408 0.179151 21.5518 0.540855C20.7627 0.902559 20.0624 1.43259 19.5 2.09375C18.9376 1.43259 18.2373 0.902559 17.4482 0.540855C16.6592 0.179151 15.8005 -0.00545563 14.9325 -4.78429e-06C11.6612 -4.78429e-06 9 2.69125 9 6C9 7.375 9.405 8.71125 10.2575 10.125C9.5593 10.3019 8.92211 10.6648 8.41375 11.175L5.58625 14H2C1.46957 14 0.960859 14.2107 0.585786 14.5858C0.210714 14.9609 0 15.4696 0 16L0 21C0 21.5304 0.210714 22.0391 0.585786 22.4142C0.960859 22.7893 1.46957 23 2 23H15C15.0818 23 15.1632 22.99 15.2425 22.97L23.2425 20.97C23.2935 20.9579 23.3433 20.9411 23.3913 20.92L28.25 18.8525L28.305 18.8275C28.772 18.5942 29.1718 18.2458 29.4669 17.8152C29.7621 17.3846 29.9427 16.886 29.9918 16.3663C30.041 15.8466 29.957 15.3229 29.7478 14.8447C29.5387 14.3664 29.2112 13.9492 28.7962 13.6325H28.7913ZM14.9325 2C15.707 1.98866 16.4673 2.20859 17.1162 2.63166C17.765 3.05473 18.273 3.66171 18.575 4.375C18.6503 4.55841 18.7785 4.71528 18.9432 4.82568C19.1079 4.93608 19.3017 4.99503 19.5 4.99503C19.6983 4.99503 19.8921 4.93608 20.0568 4.82568C20.2215 4.71528 20.3497 4.55841 20.425 4.375C20.727 3.66171 21.235 3.05473 21.8838 2.63166C22.5327 2.20859 23.293 1.98866 24.0675 2C26.1987 2 28 3.83125 28 6C28 8.43875 26.0262 11.1975 22.2925 13.9875L20.9062 14.3062C21.0279 13.7922 21.0317 13.2574 20.9172 12.7417C20.8028 12.226 20.5731 11.7429 20.2454 11.3287C19.9177 10.9144 19.5005 10.5796 19.0251 10.3495C18.5496 10.1194 18.0282 9.99994 17.5 10H12.585C11.5063 8.545 11 7.265 11 6C11 3.83125 12.8012 2 14.9325 2ZM2 16H5V21H2V16ZM27.4287 17.0262L22.6787 19.0487L14.875 21H7V15.4137L9.82875 12.5862C10.0138 12.3997 10.2341 12.2518 10.4768 12.1512C10.7195 12.0506 10.9798 11.9992 11.2425 12H17.5C17.8978 12 18.2794 12.158 18.5607 12.4393C18.842 12.7206 19 13.1022 19 13.5C19 13.8978 18.842 14.2794 18.5607 14.5607C18.2794 14.842 17.8978 15 17.5 15H14C13.7348 15 13.4804 15.1054 13.2929 15.2929C13.1054 15.4804 13 15.7348 13 16C13 16.2652 13.1054 16.5196 13.2929 16.7071C13.4804 16.8946 13.7348 17 14 17H18C18.0753 16.9998 18.1503 16.9914 18.2237 16.975L26.5987 15.0487L26.6375 15.0387C26.8932 14.9678 27.166 14.9939 27.4036 15.112C27.6412 15.2301 27.8267 15.4319 27.9245 15.6786C28.0222 15.9253 28.0253 16.1994 27.9331 16.4482C27.8409 16.6969 27.6599 16.9028 27.425 17.0262H27.4287Z" fill="#FEBB40"/>
</svg>
