<svg width="28" height="28" viewBox="0 0 28 28" fill="none" xmlns="http://www.w3.org/2000/svg">
<path d="M27.7076 6.29306L21.7076 0.293056C21.6147 0.200146 21.5044 0.126445 21.383 0.0761627C21.2616 0.02588 21.1315 0 21.0001 0C20.8687 0 20.7386 0.02588 20.6172 0.0761627C20.4958 0.126445 20.3855 0.200146 20.2926 0.293056C20.1997 0.385966 20.126 0.496267 20.0757 0.61766C20.0254 0.739053 19.9995 0.869161 19.9995 1.00056C19.9995 1.13195 20.0254 1.26206 20.0757 1.38345C20.126 1.50485 20.1997 1.61515 20.2926 1.70806L22.5863 4.00056L19.0001 7.58681L14.7076 3.29306C14.5199 3.10542 14.2654 3 14.0001 3C13.7347 3 13.4802 3.10542 13.2926 3.29306C13.1049 3.4807 12.9995 3.73519 12.9995 4.00056C12.9995 4.26592 13.1049 4.52042 13.2926 4.70806L14.0863 5.50056L3.58632 16.0006C3.39979 16.1856 3.25191 16.4059 3.15127 16.6486C3.05062 16.8913 2.99923 17.1516 3.00007 17.4143V23.5868L0.292568 26.2931C0.199658 26.386 0.125957 26.4963 0.0756744 26.6177C0.0253918 26.7391 -0.000488281 26.8692 -0.000488281 27.0006C-0.000488281 27.132 0.0253918 27.2621 0.0756744 27.3835C0.125957 27.5048 0.199658 27.6151 0.292568 27.7081C0.480209 27.8957 0.734704 28.0011 1.00007 28.0011C1.13146 28.0011 1.26157 27.9752 1.38296 27.9249C1.50436 27.8747 1.61466 27.801 1.70757 27.7081L4.41382 25.0006H10.5863C10.8491 25.0014 11.1093 24.95 11.352 24.8494C11.5947 24.7487 11.815 24.6008 12.0001 24.4143L22.5001 13.9143L23.2926 14.7081C23.3855 14.801 23.4958 14.8747 23.6172 14.9249C23.7386 14.9752 23.8687 15.0011 24.0001 15.0011C24.1315 15.0011 24.2616 14.9752 24.383 14.9249C24.5044 14.8747 24.6147 14.801 24.7076 14.7081C24.8005 14.6151 24.8742 14.5048 24.9245 14.3835C24.9747 14.2621 25.0006 14.132 25.0006 14.0006C25.0006 13.8692 24.9747 13.7391 24.9245 13.6177C24.8742 13.4963 24.8005 13.386 24.7076 13.2931L20.4138 9.00056L24.0001 5.41431L26.2926 7.70806C26.4802 7.8957 26.7347 8.00111 27.0001 8.00111C27.2654 8.00111 27.5199 7.8957 27.7076 7.70806C27.8952 7.52042 28.0006 7.26592 28.0006 7.00056C28.0006 6.73519 27.8952 6.4807 27.7076 6.29306ZM10.5863 23.0006H5.00007V17.4143L7.25007 15.1643L9.79257 17.7081C9.88548 17.801 9.99578 17.8747 10.1172 17.9249C10.2386 17.9752 10.3687 18.0011 10.5001 18.0011C10.6315 18.0011 10.7616 17.9752 10.883 17.9249C11.0044 17.8747 11.1147 17.801 11.2076 17.7081C11.3005 17.6151 11.3742 17.5048 11.4245 17.3835C11.4747 17.2621 11.5006 17.132 11.5006 17.0006C11.5006 16.8692 11.4747 16.7391 11.4245 16.6177C11.3742 16.4963 11.3005 16.386 11.2076 16.2931L8.66382 13.7506L10.2501 12.1643L12.7926 14.7081C12.9802 14.8957 13.2347 15.0011 13.5001 15.0011C13.7654 15.0011 14.0199 14.8957 14.2076 14.7081C14.3952 14.5204 14.5006 14.2659 14.5006 14.0006C14.5006 13.7352 14.3952 13.4807 14.2076 13.2931L11.6638 10.7506L15.5001 6.91431L21.0863 12.5006L10.5863 23.0006Z" fill="#FEBB40"/>
</svg>
