<svg width="28" height="25" viewBox="0 0 28 25" fill="none" xmlns="http://www.w3.org/2000/svg">
<path d="M24.5 6C23.8078 6 23.1311 6.20527 22.5555 6.58986C21.9799 6.97444 21.5313 7.52107 21.2664 8.16061C21.0015 8.80015 20.9322 9.50388 21.0673 10.1828C21.2023 10.8618 21.5356 11.4854 22.0251 11.9749C22.5146 12.4644 23.1383 12.7977 23.8172 12.9327C24.4961 13.0678 25.1999 12.9985 25.8394 12.7336C26.4789 12.4687 27.0256 12.0201 27.4101 11.4445C27.7947 10.8689 28 10.1922 28 9.5C28 8.57174 27.6313 7.68151 26.9749 7.02513C26.3185 6.36875 25.4283 6 24.5 6ZM24.5 11C24.2033 11 23.9133 10.912 23.6666 10.7472C23.42 10.5824 23.2277 10.3481 23.1142 10.074C23.0007 9.79994 22.9709 9.49834 23.0288 9.20737C23.0867 8.91639 23.2296 8.64912 23.4393 8.43934C23.6491 8.22956 23.9164 8.0867 24.2074 8.02882C24.4983 7.97095 24.7999 8.00065 25.074 8.11418C25.3481 8.22771 25.5824 8.41997 25.7472 8.66665C25.912 8.91332 26 9.20333 26 9.5C26 9.89783 25.842 10.2794 25.5607 10.5607C25.2794 10.842 24.8978 11 24.5 11ZM7 9.5C7 8.80777 6.79473 8.13108 6.41015 7.55551C6.02556 6.97993 5.47894 6.53133 4.83939 6.26642C4.19985 6.00152 3.49612 5.9322 2.81719 6.06725C2.13825 6.2023 1.51461 6.53564 1.02513 7.02513C0.535644 7.51461 0.202301 8.13825 0.0672531 8.81718C-0.0677952 9.49612 0.00151649 10.1999 0.266423 10.8394C0.53133 11.4789 0.979934 12.0256 1.55551 12.4101C2.13108 12.7947 2.80777 13 3.5 13C4.42826 13 5.3185 12.6313 5.97487 11.9749C6.63125 11.3185 7 10.4283 7 9.5ZM3.5 11C3.20333 11 2.91332 10.912 2.66665 10.7472C2.41997 10.5824 2.22771 10.3481 2.11418 10.074C2.00065 9.79994 1.97095 9.49834 2.02882 9.20737C2.0867 8.91639 2.22956 8.64912 2.43934 8.43934C2.64912 8.22956 2.91639 8.0867 3.20737 8.02882C3.49834 7.97095 3.79994 8.00065 4.07403 8.11418C4.34812 8.22771 4.58238 8.41997 4.74721 8.66665C4.91203 8.91332 5 9.20333 5 9.5C5 9.89783 4.84197 10.2794 4.56066 10.5607C4.27936 10.842 3.89783 11 3.5 11ZM9.5 7C10.1922 7 10.8689 6.79473 11.4445 6.41015C12.0201 6.02556 12.4687 5.47893 12.7336 4.83939C12.9985 4.19985 13.0678 3.49612 12.9328 2.81719C12.7977 2.13825 12.4644 1.51461 11.9749 1.02513C11.4854 0.535644 10.8618 0.202301 10.1828 0.0672531C9.50388 -0.0677952 8.80015 0.00151649 8.16061 0.266423C7.52107 0.53133 6.97444 0.979934 6.58986 1.55551C6.20527 2.13108 6 2.80777 6 3.5C6 4.42826 6.36875 5.3185 7.02513 5.97487C7.68151 6.63125 8.57174 7 9.5 7ZM9.5 2C9.79667 2 10.0867 2.08798 10.3334 2.2528C10.58 2.41762 10.7723 2.65189 10.8858 2.92598C10.9994 3.20007 11.0291 3.50167 10.9712 3.79264C10.9133 4.08361 10.7704 4.35088 10.5607 4.56066C10.3509 4.77044 10.0836 4.9133 9.79264 4.97118C9.50167 5.02906 9.20007 4.99935 8.92598 4.88582C8.65189 4.77229 8.41762 4.58003 8.2528 4.33336C8.08798 4.08668 8 3.79667 8 3.5C8 3.10218 8.15804 2.72065 8.43934 2.43934C8.72065 2.15804 9.10218 2 9.5 2ZM18.5 7C19.1922 7 19.8689 6.79473 20.4445 6.41015C21.0201 6.02556 21.4687 5.47893 21.7336 4.83939C21.9985 4.19985 22.0678 3.49612 21.9328 2.81719C21.7977 2.13825 21.4644 1.51461 20.9749 1.02513C20.4854 0.535644 19.8618 0.202301 19.1828 0.0672531C18.5039 -0.0677952 17.8002 0.00151649 17.1606 0.266423C16.5211 0.53133 15.9744 0.979934 15.5899 1.55551C15.2053 2.13108 15 2.80777 15 3.5C15 4.42826 15.3688 5.3185 16.0251 5.97487C16.6815 6.63125 17.5717 7 18.5 7ZM18.5 2C18.7967 2 19.0867 2.08798 19.3334 2.2528C19.58 2.41762 19.7723 2.65189 19.8858 2.92598C19.9994 3.20007 20.0291 3.50167 19.9712 3.79264C19.9133 4.08361 19.7704 4.35088 19.5607 4.56066C19.3509 4.77044 19.0836 4.9133 18.7926 4.97118C18.5017 5.02906 18.2001 4.99935 17.926 4.88582C17.6519 4.77229 17.4176 4.58003 17.2528 4.33336C17.088 4.08668 17 3.79667 17 3.5C17 3.10218 17.158 2.72065 17.4393 2.43934C17.7206 2.15804 18.1022 2 18.5 2ZM21.39 14.6075C20.8821 14.3273 20.4344 13.9497 20.0725 13.4962C19.7107 13.0428 19.4418 12.5225 19.2813 11.965C18.9488 10.8216 18.2541 9.81692 17.3018 9.10205C16.3494 8.38718 15.1908 8.00071 14 8.00071C12.8092 8.00071 11.6506 8.38718 10.6982 9.10205C9.74586 9.81692 9.05125 10.8216 8.71875 11.965C8.39757 13.0867 7.6446 14.0352 6.625 14.6025C5.6469 15.1318 4.87316 15.972 4.42616 16.9903C3.97916 18.0086 3.88441 19.1469 4.15691 20.2251C4.4294 21.3033 5.05358 22.2599 5.93072 22.9436C6.80786 23.6273 7.88789 23.999 9 24C9.66645 24.0019 10.3264 23.8688 10.94 23.6088C12.8963 22.8019 15.0924 22.8019 17.0488 23.6088C18.2337 24.1241 19.5721 24.1607 20.7835 23.7109C21.9948 23.2611 22.985 22.3598 23.5464 21.1959C24.1078 20.0321 24.1968 18.6961 23.7948 17.4681C23.3928 16.24 22.5309 15.2153 21.39 14.6088V14.6075ZM19 22C18.594 22.0003 18.1921 21.9183 17.8188 21.7588C15.3695 20.7471 12.6192 20.7471 10.17 21.7588C9.45825 22.0652 8.65552 22.0844 7.92996 21.8122C7.2044 21.54 6.61231 20.9977 6.27769 20.2987C5.94308 19.5998 5.89191 18.7984 6.1349 18.0626C6.3779 17.3268 6.8962 16.7135 7.58125 16.3513C8.3178 15.9445 8.96695 15.3965 9.49158 14.7387C10.0162 14.0809 10.406 13.3261 10.6388 12.5175C10.8501 11.7895 11.2921 11.1498 11.8982 10.6945C12.5044 10.2393 13.2419 9.99321 14 9.99321C14.7581 9.99321 15.4956 10.2393 16.1018 10.6945C16.7079 11.1498 17.1499 11.7895 17.3613 12.5175C17.5947 13.3276 17.9858 14.0837 18.5119 14.7424C19.0381 15.4011 19.689 15.9495 20.4275 16.3563C21.0173 16.6726 21.4844 17.177 21.7545 17.7894C22.0245 18.4017 22.0821 19.0868 21.918 19.7357C21.7539 20.3845 21.3775 20.9598 20.8488 21.3701C20.32 21.7804 19.6693 22.0021 19 22Z" fill="#FEBB40"/>
</svg>
