<svg width="30" height="25" viewBox="0 0 30 25" fill="none" xmlns="http://www.w3.org/2000/svg">
<path d="M30 12.5C29.9986 11.1754 29.6223 9.87828 28.9144 8.75871C28.2065 7.63914 27.196 6.74291 26 6.17375V6C25.9988 4.71152 25.5829 3.45764 24.8138 2.42389C24.0447 1.39014 22.9632 0.631432 21.7294 0.260033C20.4957 -0.111365 19.1751 -0.075725 17.9631 0.36168C16.7512 0.799086 15.7122 1.61502 15 2.68875C14.2877 1.61502 13.2488 0.799086 12.0368 0.36168C10.8248 -0.075725 9.50427 -0.111365 8.27048 0.260033C7.03669 0.631432 5.95523 1.39014 5.18612 2.42389C4.41702 3.45764 4.00111 4.71152 3.99996 6V6.17375C2.80288 6.74136 1.79146 7.63702 1.08322 8.75665C0.374986 9.87629 -0.000976562 11.1739 -0.000976562 12.4987C-0.000976562 13.8236 0.374986 15.1212 1.08322 16.2408C1.79146 17.3605 2.80288 18.2561 3.99996 18.8237V19C4.00111 20.2885 4.41702 21.5424 5.18612 22.5761C5.95523 23.6099 7.03669 24.3686 8.27048 24.74C9.50427 25.1114 10.8248 25.0757 12.0368 24.6383C13.2488 24.2009 14.2877 23.385 15 22.3113C15.7122 23.385 16.7512 24.2009 17.9631 24.6383C19.1751 25.0757 20.4957 25.1114 21.7294 24.74C22.9632 24.3686 24.0447 23.6099 24.8138 22.5761C25.5829 21.5424 25.9988 20.2885 26 19V18.8237C27.1958 18.255 28.2062 17.3592 28.9141 16.2401C29.622 15.121 29.9985 13.8242 30 12.5ZM9.99996 23C9.01364 22.9999 8.06216 22.6353 7.32824 21.9764C6.59433 21.3175 6.12974 20.4106 6.02371 19.43C6.34709 19.4761 6.67331 19.4995 6.99996 19.5H7.99996C8.26518 19.5 8.51953 19.3946 8.70707 19.2071C8.8946 19.0196 8.99996 18.7652 8.99996 18.5C8.99996 18.2348 8.8946 17.9804 8.70707 17.7929C8.51953 17.6054 8.26518 17.5 7.99996 17.5H6.99996C5.81941 17.5014 4.67645 17.085 3.77343 16.3246C2.87042 15.5641 2.2656 14.5087 2.06606 13.3451C1.86652 12.1816 2.08513 10.9849 2.68318 9.96706C3.28123 8.9492 4.22016 8.17579 5.33371 7.78375C5.52855 7.71477 5.69723 7.5871 5.81654 7.41832C5.93585 7.24955 5.99993 7.04794 5.99996 6.84125V6C5.99996 4.93913 6.42139 3.92172 7.17153 3.17157C7.92168 2.42143 8.93909 2 9.99996 2C11.0608 2 12.0782 2.42143 12.8284 3.17157C13.5785 3.92172 14 4.93913 14 6V14.5325C12.9019 13.5449 11.4769 12.9989 9.99996 13C9.73474 13 9.48039 13.1054 9.29285 13.2929C9.10532 13.4804 8.99996 13.7348 8.99996 14C8.99996 14.2652 9.10532 14.5196 9.29285 14.7071C9.48039 14.8946 9.73474 15 9.99996 15C11.0608 15 12.0782 15.4214 12.8284 16.1716C13.5785 16.9217 14 17.9391 14 19C14 20.0609 13.5785 21.0783 12.8284 21.8284C12.0782 22.5786 11.0608 23 9.99996 23ZM23 17.5H22C21.7347 17.5 21.4804 17.6054 21.2929 17.7929C21.1053 17.9804 21 18.2348 21 18.5C21 18.7652 21.1053 19.0196 21.2929 19.2071C21.4804 19.3946 21.7347 19.5 22 19.5H23C23.3266 19.4995 23.6528 19.4761 23.9762 19.43C23.8931 20.1983 23.5893 20.9262 23.1013 21.5255C22.6134 22.1248 21.9623 22.5699 21.2268 22.807C20.4913 23.0442 19.7028 23.0632 18.9567 22.8617C18.2106 22.6603 17.5388 22.247 17.0226 21.6719C16.5064 21.0967 16.1679 20.3844 16.0479 19.621C15.9279 18.8575 16.0317 18.0757 16.3466 17.3699C16.6615 16.6642 17.1742 16.0648 17.8225 15.6442C18.4709 15.2237 19.2271 14.9999 20 15C20.2652 15 20.5195 14.8946 20.7071 14.7071C20.8946 14.5196 21 14.2652 21 14C21 13.7348 20.8946 13.4804 20.7071 13.2929C20.5195 13.1054 20.2652 13 20 13C18.523 12.9989 17.0981 13.5449 16 14.5325V6C16 4.93913 16.4214 3.92172 17.1715 3.17157C17.9217 2.42143 18.9391 2 20 2C21.0608 2 22.0782 2.42143 22.8284 3.17157C23.5785 3.92172 24 4.93913 24 6V6.84125C24 7.04794 24.0641 7.24955 24.1834 7.41832C24.3027 7.5871 24.4714 7.71477 24.6662 7.78375C25.7798 8.17579 26.7187 8.9492 27.3167 9.96706C27.9148 10.9849 28.1334 12.1816 27.9339 13.3451C27.7343 14.5087 27.1295 15.5641 26.2265 16.3246C25.3235 17.085 24.1805 17.5014 23 17.5ZM25 11C25 11.2652 24.8946 11.5196 24.7071 11.7071C24.5195 11.8946 24.2652 12 24 12H23.5C22.3065 12 21.1619 11.5259 20.318 10.682C19.4741 9.83807 19 8.69347 19 7.5V7C19 6.73478 19.1053 6.48043 19.2929 6.29289C19.4804 6.10536 19.7347 6 20 6C20.2652 6 20.5195 6.10536 20.7071 6.29289C20.8946 6.48043 21 6.73478 21 7V7.5C21 8.16304 21.2634 8.79893 21.7322 9.26777C22.201 9.73661 22.8369 10 23.5 10H24C24.2652 10 24.5195 10.1054 24.7071 10.2929C24.8946 10.4804 25 10.7348 25 11ZM6.49996 12H5.99996C5.73474 12 5.48039 11.8946 5.29285 11.7071C5.10532 11.5196 4.99996 11.2652 4.99996 11C4.99996 10.7348 5.10532 10.4804 5.29285 10.2929C5.48039 10.1054 5.73474 10 5.99996 10H6.49996C7.163 10 7.79889 9.73661 8.26773 9.26777C8.73657 8.79893 8.99996 8.16304 8.99996 7.5V7C8.99996 6.73478 9.10532 6.48043 9.29285 6.29289C9.48039 6.10536 9.73474 6 9.99996 6C10.2652 6 10.5195 6.10536 10.7071 6.29289C10.8946 6.48043 11 6.73478 11 7V7.5C11 8.69347 10.5259 9.83807 9.68194 10.682C8.83803 11.5259 7.69344 12 6.49996 12Z" fill="#FEBB40"/>
</svg>
