<svg width="28" height="25" viewBox="0 0 28 25" fill="none" xmlns="http://www.w3.org/2000/svg">
<path d="M15.0014 12.9973V19.9973C15.0014 20.2625 14.896 20.5169 14.7085 20.7044C14.521 20.892 14.2666 20.9973 14.0014 20.9973C13.7362 20.9973 13.4818 20.892 13.2943 20.7044C13.1067 20.5169 13.0014 20.2625 13.0014 19.9973V12.9973C13.0014 12.7321 13.1067 12.4777 13.2943 12.2902C13.4818 12.1027 13.7362 11.9973 14.0014 11.9973C14.2666 11.9973 14.521 12.1027 14.7085 12.2902C14.896 12.4777 15.0014 12.7321 15.0014 12.9973ZM27.9839 10.2611L26.2514 23.2623C26.1872 23.7428 25.9506 24.1836 25.5857 24.5028C25.2208 24.8219 24.7524 24.9976 24.2676 24.9973H3.73513C3.25037 24.9976 2.78197 24.8219 2.41708 24.5028C2.05218 24.1836 1.81562 23.7428 1.75138 23.2623L0.0176342 10.2623C-0.0201473 9.97968 0.00294247 9.69224 0.0853546 9.41927C0.167767 9.1463 0.307596 8.8941 0.495464 8.6796C0.683333 8.46509 0.914896 8.29324 1.17462 8.17557C1.43435 8.05789 1.71624 7.99711 2.00138 7.99731H6.54763L13.2514 0.338562C13.3452 0.232155 13.4606 0.146935 13.5899 0.088562C13.7193 0.0301891 13.8595 0 14.0014 0C14.1433 0 14.2835 0.0301891 14.4128 0.088562C14.5421 0.146935 14.6575 0.232155 14.7514 0.338562L21.4551 7.99731H26.0014C26.2862 7.99749 26.5677 8.05851 26.827 8.17626C27.0863 8.29402 27.3175 8.46581 27.5051 8.68013C27.6927 8.89445 27.8323 9.14636 27.9147 9.419C27.997 9.69165 28.0202 9.97874 27.9826 10.2611H27.9839ZM9.20513 7.99731H18.7976L14.0014 2.51606L9.20513 7.99731ZM26.0014 9.99731H2.00138L3.73513 22.9973H24.2676L26.0014 9.99731ZM19.6064 12.8973L18.9064 19.8973C18.8926 20.0284 18.9048 20.1609 18.9423 20.2872C18.9799 20.4135 19.042 20.5312 19.1252 20.6334C19.2084 20.7356 19.3109 20.8204 19.427 20.8828C19.543 20.9453 19.6703 20.9842 19.8014 20.9973C19.8351 20.9992 19.8689 20.9992 19.9026 20.9973C20.1503 20.997 20.3891 20.9048 20.5727 20.7385C20.7563 20.5722 20.8716 20.3438 20.8964 20.0973L21.5964 13.0973C21.6229 12.8334 21.5435 12.5698 21.3757 12.3645C21.2078 12.1591 20.9653 12.0288 20.7014 12.0023C20.4375 11.9758 20.1739 12.0552 19.9685 12.223C19.7632 12.3909 19.6329 12.6334 19.6064 12.8973ZM8.39639 12.8973C8.36986 12.6334 8.2396 12.3909 8.03425 12.223C7.82889 12.0552 7.56527 11.9758 7.30138 12.0023C7.03749 12.0288 6.79495 12.1591 6.6271 12.3645C6.45926 12.5698 6.37986 12.8334 6.40638 13.0973L7.10638 20.0973C7.13126 20.3448 7.2475 20.5742 7.43241 20.7406C7.61732 20.907 7.85762 20.9986 8.10638 20.9973C8.14011 20.9992 8.17391 20.9992 8.20763 20.9973C8.3383 20.9842 8.4651 20.9454 8.5808 20.8833C8.69649 20.8212 8.79881 20.7369 8.88192 20.6352C8.96503 20.5335 9.0273 20.4164 9.06517 20.2907C9.10304 20.165 9.11577 20.033 9.10263 19.9023L8.39639 12.8973Z" fill="#FEBB40"/>
</svg>
