<svg width="21" height="27" viewBox="0 0 21 27" fill="none" xmlns="http://www.w3.org/2000/svg">
<path d="M1.94995 25.7H19.0499" stroke="#FEBB40" stroke-width="2" stroke-linecap="round" stroke-linejoin="round"/>
<path d="M10.5 14.3C12.5986 14.3 14.3 12.5987 14.3 10.5C14.3 8.40133 12.5986 6.70001 10.5 6.70001C8.40127 6.70001 6.69995 8.40133 6.69995 10.5C6.69995 12.5987 8.40127 14.3 10.5 14.3Z" stroke="#FEBB40" stroke-width="2" stroke-linecap="round" stroke-linejoin="round"/>
<path d="M20 10.5C20 19.05 10.5 25.7 10.5 25.7C10.5 25.7 1 19.05 1 10.5C1 7.98044 2.00089 5.56408 3.78249 3.78249C5.56408 2.00089 7.98044 1 10.5 1C13.0196 1 15.4359 2.00089 17.2175 3.78249C18.9991 5.56408 20 7.98044 20 10.5Z" stroke="#FEBB40" stroke-width="2" stroke-linecap="round" stroke-linejoin="round"/>
</svg>
