<svg xmlns="http://www.w3.org/2000/svg" xmlns:xlink="http://www.w3.org/1999/xlink" width="6912" zoomAndPan="magnify" viewBox="0 0 5184 2592.000001" height="3456" preserveAspectRatio="xMidYMid meet" version="1.0"><defs><clipPath id="ebc84402e9"><path d="M 3308.058594 723.5625 L 5183 723.5625 L 5183 2591 L 3308.058594 2591 Z M 3308.058594 723.5625 " clip-rule="nonzero"/></clipPath><clipPath id="19b72c5572"><path d="M 4325.277344 723.5625 C 3763.480469 723.5625 3308.058594 1178.984375 3308.058594 1740.78125 C 3308.058594 2302.574219 3763.480469 2758 4325.277344 2758 C 4887.070312 2758 5342.492188 2302.574219 5342.492188 1740.78125 C 5342.492188 1178.984375 4887.070312 723.5625 4325.277344 723.5625 Z M 4325.277344 723.5625 " clip-rule="nonzero"/></clipPath><clipPath id="9eae90bc2b"><path d="M 3467.550781 2535 L 5182.886719 2535 L 5182.886719 2590.863281 L 3467.550781 2590.863281 Z M 3467.550781 2535 " clip-rule="nonzero"/></clipPath><clipPath id="4ef161df64"><path d="M 1 0 L 817 0 L 817 638 L 1 638 Z M 1 0 " clip-rule="nonzero"/></clipPath><clipPath id="fb7b739409"><path d="M 895.097656 68.960938 L 21.5 723.464844 L -374.976562 194.269531 L 498.617188 -460.234375 Z M 895.097656 68.960938 " clip-rule="nonzero"/></clipPath><clipPath id="38af60a414"><path d="M 895.097656 68.960938 L 21.5 723.464844 L -374.976562 194.269531 L 498.617188 -460.234375 Z M 895.097656 68.960938 " clip-rule="nonzero"/></clipPath><clipPath id="cfa1751657"><path d="M 1 1883 L 390 1883 L 390 2591 L 1 2591 Z M 1 1883 " clip-rule="nonzero"/></clipPath><clipPath id="de7b8b8a55"><path d="M -349.367188 1848.871094 L 424.484375 1921.988281 L 351.367188 2695.839844 L -422.488281 2622.722656 Z M -349.367188 1848.871094 " clip-rule="nonzero"/></clipPath><clipPath id="a92d99dab7"><path d="M 37.558594 1885.429688 C -176.136719 1865.238281 -365.734375 2022.101562 -385.925781 2235.796875 C -406.117188 2449.488281 -249.253906 2639.089844 -35.558594 2659.28125 C 178.132812 2679.472656 367.734375 2522.609375 387.925781 2308.914062 C 408.117188 2095.222656 251.253906 1905.621094 37.558594 1885.429688 Z M 37.558594 1885.429688 " clip-rule="nonzero"/></clipPath><clipPath id="34810158be"><path d="M 1 2202 L 719 2202 L 719 2591 L 1 2591 Z M 1 2202 " clip-rule="nonzero"/></clipPath><clipPath id="d7b5de3580"><path d="M -20.761719 2167.515625 L 753.089844 2240.632812 L 679.972656 3014.488281 L -93.878906 2941.367188 Z M -20.761719 2167.515625 " clip-rule="nonzero"/></clipPath><clipPath id="e3ce29b81f"><path d="M 366.164062 2204.074219 C 152.472656 2183.882812 -37.128906 2340.746094 -57.320312 2554.441406 C -77.511719 2768.136719 79.351562 2957.734375 293.046875 2977.925781 C 506.742188 2998.117188 696.339844 2841.253906 716.53125 2627.558594 C 736.722656 2413.867188 579.859375 2224.265625 366.164062 2204.074219 Z M 366.164062 2204.074219 " clip-rule="nonzero"/></clipPath><clipPath id="f81d28cac4"><path d="M 1 2144 L 390 2144 L 390 2591 L 1 2591 Z M 1 2144 " clip-rule="nonzero"/></clipPath><clipPath id="c75dbbbc25"><path d="M -349.367188 2109.59375 L 424.484375 2182.710938 L 351.367188 2956.566406 L -422.488281 2883.445312 Z M -349.367188 2109.59375 " clip-rule="nonzero"/></clipPath><clipPath id="63a0e13100"><path d="M 37.558594 2146.152344 C -176.136719 2125.960938 -365.734375 2282.824219 -385.925781 2496.519531 C -406.117188 2710.214844 -249.253906 2899.8125 -35.558594 2920.003906 C 178.132812 2940.195312 367.734375 2783.332031 387.925781 2569.636719 C 408.117188 2355.945312 251.253906 2166.34375 37.558594 2146.152344 Z M 37.558594 2146.152344 " clip-rule="nonzero"/></clipPath></defs><path fill="#ffffff" d="M 1 0 L 5183 0 L 5183 2591 L 1 2591 Z M 1 0 " fill-opacity="1" fill-rule="nonzero"/><path fill="#ffffff" d="M 1 0 L 5183 0 L 5183 2591 L 1 2591 Z M 1 0 " fill-opacity="1" fill-rule="nonzero"/><g clip-path="url(#ebc84402e9)"><g clip-path="url(#19b72c5572)"><path fill="#fab51e" d="M 3308.058594 723.5625 L 5342.492188 723.5625 L 5342.492188 2758 L 3308.058594 2758 Z M 3308.058594 723.5625 " fill-opacity="1" fill-rule="nonzero"/></g></g><path fill="#a3654a" d="M 4140.730469 1305.871094 C 4140.730469 1305.871094 4083.527344 1256.820312 4099.863281 1158.738281 C 4116.210938 1060.65625 4173.429688 1003.453125 4238.8125 995.285156 C 4304.195312 987.101562 4279.679688 1011.621094 4304.195312 1003.453125 C 4328.726562 995.285156 4353.246094 987.101562 4385.929688 1011.621094 C 4418.628906 1036.136719 4475.84375 1060.65625 4492.179688 1101.523438 C 4508.53125 1142.390625 4484.011719 1142.390625 4516.710938 1207.789062 C 4549.394531 1273.171875 4541.230469 1289.519531 4484.011719 1346.722656 C 4426.796875 1403.941406 4377.761719 1444.808594 4377.761719 1444.808594 L 4312.378906 1305.871094 L 4140.730469 1305.871094 " fill-opacity="1" fill-rule="nonzero"/><path fill="#f6b592" d="M 4418.628906 1673.660156 L 4214.296875 1681.839844 L 4214.296875 1436.640625 L 4402.277344 1322.207031 L 4410.460938 1551.074219 L 4418.628906 1673.660156 " fill-opacity="1" fill-rule="nonzero"/><path fill="#e57c5c" d="M 4362.722656 1410.882812 C 4355.855469 1434.105469 4320.546875 1477.507812 4271.511719 1510.207031 C 4249.929688 1524.578125 4229.90625 1526.304688 4214.296875 1523.679688 L 4214.296875 1477.507812 L 4263.328125 1428.457031 C 4263.328125 1428.457031 4369.59375 1387.589844 4362.722656 1410.882812 " fill-opacity="1" fill-rule="nonzero"/><path fill="#5faad3" d="M 4188.128906 1617.8125 C 4188.128906 1617.8125 4304.195312 1714.527344 4447.230469 1617.8125 L 4467.664062 2108.214844 L 4075.347656 2041.460938 L 4188.128906 1617.8125 " fill-opacity="1" fill-rule="nonzero"/><path fill="#f6b592" d="M 4165.246094 1134.222656 C 4158.109375 1162.808594 4124.378906 1256.820312 4132.5625 1338.554688 C 4140.730469 1420.289062 4181.597656 1461.15625 4197.945312 1469.324219 C 4214.296875 1477.507812 4271.511719 1493.855469 4328.726562 1444.808594 C 4385.929688 1395.773438 4410.460938 1338.554688 4410.460938 1338.554688 C 4410.460938 1338.554688 4410.460938 1248.65625 4394.113281 1215.957031 C 4377.761719 1183.269531 4336.894531 1101.523438 4312.378906 1101.523438 C 4287.859375 1101.523438 4173.429688 1101.523438 4165.246094 1134.222656 " fill-opacity="1" fill-rule="nonzero"/><path fill="#e57c5c" d="M 4198.109375 1275.691406 C 4199.789062 1285.070312 4200.527344 1294.417969 4200.996094 1303.75 C 4201.410156 1313.09375 4201.46875 1322.425781 4201.203125 1331.746094 L 4200.953125 1338.734375 L 4200.570312 1345.722656 C 4200.40625 1348.050781 4200.273438 1350.378906 4200.070312 1352.695312 L 4199.9375 1354.226562 C 4199.921875 1354.34375 4199.90625 1354.476562 4199.921875 1354.566406 C 4199.921875 1354.683594 4199.921875 1354.789062 4199.9375 1354.890625 C 4199.980469 1355.289062 4200.140625 1355.746094 4200.570312 1356.261719 C 4201.441406 1357.339844 4203.179688 1358.398438 4205.097656 1359.226562 C 4207.011719 1360.050781 4209.148438 1360.730469 4211.332031 1361.332031 C 4213.515625 1361.953125 4215.769531 1362.453125 4218.039062 1362.984375 C 4220.324219 1363.515625 4222.640625 1363.988281 4224.953125 1364.578125 C 4222.609375 1365.035156 4220.265625 1365.359375 4217.890625 1365.59375 C 4215.503906 1365.84375 4213.117188 1365.949219 4210.683594 1365.902344 C 4208.25 1365.859375 4205.789062 1365.667969 4203.253906 1365.121094 C 4201.984375 1364.871094 4200.703125 1364.472656 4199.40625 1363.957031 C 4198.109375 1363.414062 4196.765625 1362.71875 4195.5 1361.644531 C 4194.230469 1360.566406 4193.035156 1359.046875 4192.386719 1357.207031 C 4192.210938 1356.75 4192.109375 1356.292969 4192.019531 1355.820312 C 4191.914062 1355.347656 4191.871094 1354.890625 4191.84375 1354.433594 L 4191.8125 1353.769531 L 4191.796875 1353.34375 L 4191.769531 1352.457031 C 4191.695312 1350.128906 4191.695312 1347.800781 4191.664062 1345.46875 L 4191.664062 1338.46875 L 4191.8125 1331.480469 C 4192.078125 1322.160156 4192.667969 1312.84375 4193.625 1303.542969 C 4194.613281 1294.253906 4195.898438 1284.953125 4198.109375 1275.691406 " fill-opacity="1" fill-rule="nonzero"/><path fill="#a3654a" d="M 4246.996094 1224.136719 C 4247.453125 1222.855469 4248.101562 1221.691406 4248.835938 1220.644531 C 4249.546875 1219.582031 4250.371094 1218.625 4251.226562 1217.710938 C 4252.980469 1215.925781 4254.957031 1214.390625 4257.09375 1213.167969 C 4261.382812 1210.691406 4266.351562 1209.351562 4271.421875 1209.230469 C 4273.957031 1209.1875 4276.507812 1209.46875 4279 1210.042969 C 4281.460938 1210.664062 4283.878906 1211.578125 4286.09375 1212.828125 C 4290.46875 1215.410156 4294.199219 1219.066406 4296.027344 1224.136719 C 4290.648438 1224.445312 4286.519531 1224.285156 4282.640625 1224.375 L 4271.71875 1224.519531 C 4268.148438 1224.59375 4264.507812 1224.667969 4260.527344 1224.652344 C 4256.488281 1224.625 4252.289062 1224.609375 4246.996094 1224.136719 " fill-opacity="1" fill-rule="nonzero"/><path fill="#a3654a" d="M 4181.566406 1224.09375 C 4176.6875 1224.269531 4172.957031 1223.917969 4169.523438 1223.679688 C 4166.144531 1223.386719 4163.269531 1223.121094 4160.765625 1222.988281 C 4158.257812 1222.898438 4156.179688 1222.765625 4153.394531 1223.0625 C 4150.546875 1223.296875 4147.1875 1224.328125 4142.425781 1225.683594 C 4142.101562 1223.222656 4142.441406 1220.878906 4143.292969 1218.667969 C 4144.105469 1216.441406 4145.519531 1214.378906 4147.363281 1212.652344 C 4151.035156 1209.101562 4156.621094 1207.40625 4161.589844 1207.714844 C 4166.601562 1208.023438 4171.039062 1209.941406 4174.476562 1212.742188 C 4176.214844 1214.15625 4177.6875 1215.824219 4178.925781 1217.679688 C 4180.121094 1219.566406 4181.152344 1221.617188 4181.566406 1224.09375 " fill-opacity="1" fill-rule="nonzero"/><path fill="#e57c5c" d="M 4222.460938 1403.941406 C 4228.359375 1403.011719 4233.960938 1402.316406 4239.429688 1401.402344 C 4244.886719 1400.503906 4250.207031 1399.457031 4255.222656 1397.894531 C 4260.261719 1396.363281 4264.9375 1394.269531 4269.195312 1391.351562 C 4271.289062 1389.847656 4273.25 1388.121094 4275.125 1386.144531 C 4277.011719 1384.171875 4278.601562 1381.886719 4280.371094 1379.421875 C 4280.386719 1382.414062 4279.855469 1385.46875 4278.691406 1388.34375 C 4277.527344 1391.21875 4275.816406 1393.929688 4273.695312 1396.316406 C 4269.375 1401.007812 4263.640625 1404.277344 4257.742188 1406.035156 C 4251.832031 1407.875 4245.710938 1408.421875 4239.742188 1408.082031 C 4236.761719 1407.90625 4233.816406 1407.492188 4230.910156 1406.828125 C 4228.019531 1406.152344 4225.160156 1405.296875 4222.460938 1403.941406 " fill-opacity="1" fill-rule="nonzero"/><path fill="#a3654a" d="M 4206.128906 1126.054688 C 4239.476562 1130.816406 4263.328125 1093.355469 4279.679688 1126.054688 C 4296.027344 1158.738281 4304.195312 1175.089844 4336.894531 1183.269531 C 4369.59375 1191.4375 4385.929688 1277.253906 4418.628906 1283.386719 C 4451.3125 1289.519531 4361.414062 1117.871094 4361.414062 1117.871094 L 4328.726562 1077.003906 L 4238.8125 1077.003906 L 4181.597656 1093.355469 L 4140.730469 1166.921875 C 4140.730469 1166.921875 4131.738281 1257.339844 4136.234375 1252.988281 C 4140.730469 1248.65625 4148.910156 1117.871094 4206.128906 1126.054688 " fill-opacity="1" fill-rule="nonzero"/><path fill="#a3654a" d="M 4350.605469 1021.957031 C 4345.34375 995.933594 4343.925781 966.949219 4349.75 940.988281 C 4353.597656 923.855469 4361.617188 906.476562 4377.878906 898.011719 C 4386.667969 893.457031 4396.175781 892.574219 4405.890625 892.660156 C 4418.289062 892.777344 4430.71875 890.597656 4442.804688 894.269531 C 4464.550781 900.886719 4478.46875 920.703125 4499.816406 928.089844 C 4506.613281 930.433594 4513.734375 932.039062 4519.96875 935.636719 C 4533.015625 943.140625 4533.046875 956.46875 4531.410156 969.824219 C 4526.324219 1011.191406 4472.261719 1096.613281 4407.558594 1058 C 4342.835938 1019.390625 4350.605469 1021.957031 4350.605469 1021.957031 " fill-opacity="1" fill-rule="nonzero"/><path fill="#8e4d36" d="M 4381.84375 1093.355469 C 4385.488281 1094.269531 4388.996094 1095.667969 4392.402344 1097.304688 C 4395.820312 1098.925781 4399.109375 1100.875 4402.277344 1103.097656 C 4408.53125 1107.597656 4414.382812 1113.390625 4418.15625 1121.21875 C 4419.984375 1125.125 4421.222656 1129.53125 4421.445312 1134.101562 C 4421.679688 1138.644531 4420.898438 1143.582031 4418.9375 1147.886719 C 4417.066406 1152.265625 4414.21875 1155.863281 4411.671875 1158.796875 C 4410.417969 1160.257812 4409.191406 1161.570312 4408.398438 1162.585938 L 4407.941406 1163.234375 C 4407.867188 1163.367188 4407.691406 1163.589844 4407.734375 1163.589844 C 4407.601562 1163.78125 4407.894531 1163.367188 4407.882812 1162.761719 C 4407.867188 1162.054688 4407.703125 1161.511719 4407.570312 1161.390625 C 4407.570312 1161.363281 4407.617188 1161.390625 4407.617188 1161.4375 C 4407.734375 1161.554688 4407.835938 1161.6875 4407.941406 1161.820312 C 4408.589844 1162.484375 4409.695312 1163.351562 4410.933594 1164.191406 C 4411.539062 1164.621094 4412.246094 1165.046875 4412.894531 1165.476562 L 4415.03125 1166.742188 L 4419.660156 1169.351562 C 4421.3125 1170.3125 4422.976562 1171.210938 4424.585938 1172.242188 C 4426.222656 1173.273438 4427.828125 1174.320312 4429.421875 1175.398438 L 4434.109375 1178.804688 L 4438.589844 1182.546875 C 4444.382812 1187.765625 4449.707031 1193.972656 4453.007812 1201.316406 C 4456.339844 1208.628906 4457.164062 1216.871094 4455.410156 1224.136719 C 4454.527344 1220.480469 4453.390625 1217.046875 4451.886719 1213.890625 L 4451.328125 1212.710938 L 4450.707031 1211.578125 C 4450.25 1210.839844 4449.914062 1210.074219 4449.398438 1209.378906 L 4447.980469 1207.285156 L 4446.402344 1205.3125 C 4442.113281 1200.164062 4436.804688 1196.023438 4431.085938 1192.351562 L 4426.707031 1189.714844 L 4422.195312 1187.207031 L 4417.550781 1184.863281 C 4416.003906 1184.082031 4414.398438 1183.375 4412.835938 1182.605469 L 4407.777344 1180.175781 L 4405.125 1178.773438 C 4404.238281 1178.242188 4403.355469 1177.757812 4402.441406 1177.183594 C 4400.644531 1176.015625 4398.785156 1174.734375 4396.824219 1172.847656 C 4396.324219 1172.300781 4395.820312 1171.742188 4395.335938 1171.179688 C 4394.820312 1170.488281 4394.316406 1169.78125 4393.847656 1168.96875 C 4393.609375 1168.511719 4393.390625 1168.042969 4393.183594 1167.554688 C 4393.078125 1167.320312 4392.960938 1167.082031 4392.875 1166.832031 L 4392.636719 1165.976562 C 4392.488281 1165.402344 4392.34375 1164.828125 4392.269531 1164.238281 C 4392.210938 1163.617188 4392.179688 1163 4392.179688 1162.378906 C 4392.253906 1159.960938 4393.035156 1157.734375 4393.832031 1156.351562 C 4394.230469 1155.511719 4394.613281 1154.992188 4395.027344 1154.359375 C 4395.421875 1153.785156 4395.792969 1153.3125 4396.191406 1152.8125 C 4397.695312 1151 4399.007812 1149.671875 4400.183594 1148.417969 C 4402.5 1145.957031 4404.285156 1143.820312 4405.492188 1141.546875 C 4406.714844 1139.292969 4407.378906 1136.890625 4407.628906 1134.148438 C 4407.792969 1131.421875 4407.511719 1128.589844 4406.703125 1125.714844 C 4405.875 1122.824219 4404.5625 1119.9375 4402.925781 1117.074219 C 4401.261719 1114.230469 4399.269531 1111.445312 4397.058594 1108.746094 C 4392.636719 1103.335938 4387.460938 1098.265625 4381.84375 1093.355469 " fill-opacity="1" fill-rule="nonzero"/><path fill="#8e4d36" d="M 4230.011719 1073.171875 C 4231.722656 1069.085938 4233.960938 1065.445312 4236.320312 1061.90625 C 4238.710938 1058.398438 4241.332031 1055.113281 4244.089844 1051.941406 C 4249.632812 1045.648438 4255.882812 1040 4262.738281 1035.03125 C 4269.59375 1030.109375 4277.097656 1025.804688 4285.488281 1023.015625 C 4289.6875 1021.660156 4294.113281 1020.644531 4298.726562 1020.523438 L 4300.4375 1020.511719 C 4301.027344 1020.539062 4301.601562 1020.570312 4302.191406 1020.628906 C 4302.765625 1020.6875 4303.328125 1020.730469 4303.902344 1020.820312 C 4304.492188 1020.921875 4305.050781 1021.054688 4305.625 1021.203125 C 4307.867188 1021.675781 4310.050781 1022.75 4311.746094 1024.136719 C 4307.320312 1024.609375 4303.914062 1026.199219 4300.554688 1028.027344 C 4297.222656 1029.855469 4294.039062 1031.949219 4290.867188 1034.132812 C 4284.574219 1038.539062 4278.308594 1043.171875 4271.910156 1047.785156 C 4265.496094 1052.382812 4258.964844 1056.96875 4252.09375 1061.289062 C 4245.195312 1065.59375 4238.121094 1069.796875 4230.011719 1073.171875 " fill-opacity="1" fill-rule="nonzero"/><path fill="#f2f7f9" d="M 4900.847656 2441.933594 C 4900.847656 2441.933594 4819.054688 2401.097656 4729.136719 2417.460938 L 4706.332031 2572.714844 L 3928.273438 2580.898438 L 3895.558594 1918.875 C 3895.25 1912.445312 3904.742188 1899.445312 3907.339844 1893.796875 C 3916.964844 1873.46875 3926.445312 1853.121094 3935.777344 1832.628906 C 3952.4375 1796.246094 3965.75 1753.285156 3989.898438 1720.71875 C 4005.953125 1699 4029.804688 1679.894531 4050.59375 1662.308594 C 4075.832031 1640.898438 4103.503906 1618.269531 4133.3125 1599.621094 C 4150.136719 1589.226562 4167.414062 1580.058594 4185.445312 1573.171875 C 4194.921875 1569.355469 4204.566406 1566.289062 4214.339844 1564.003906 L 4361.425781 2090.570312 L 4410.519531 1551 C 4410.519531 1551 4465.246094 1554.523438 4528.09375 1576.84375 C 4562.488281 1589.066406 4599.34375 1606.816406 4631.144531 1632.804688 C 4721.042969 1706.34375 4874.53125 1978.199219 4907.257812 2059.992188 C 4939.972656 2141.636719 4925.304688 2376.636719 4900.847656 2441.933594 " fill-opacity="1" fill-rule="nonzero"/><path stroke-linecap="round" transform="matrix(0.377412, 0, 0, -0.377415, 3467.550034, 2590.858401)" fill="none" stroke-linejoin="round" d="M 3287.656707 1464.557061 C 3287.656707 1464.557061 3100.082004 1411.668431 3150.041894 1234.362146 C 3200.001784 1057.097262 3358.31678 655.143676 3358.31678 655.143676 " stroke="#cedff4" stroke-width="39.382999" stroke-opacity="1" stroke-miterlimit="10"/><path stroke-linecap="round" transform="matrix(0.377412, 0, 0, -0.377415, 3467.550034, 2590.858401)" fill="none" stroke-linejoin="round" d="M 3088.3243 1453.347983 C 3088.3243 1453.347983 3213.363752 1488.62087 3308.512141 1470.415175 " stroke="#cedff4" stroke-width="40.511002" stroke-opacity="1" stroke-miterlimit="10"/><path fill="#c0def2" d="M 4349.898438 2102.894531 L 4349.898438 2225.363281 L 4173.902344 1865.402344 C 4171.46875 1860.433594 4171.085938 1854.699219 4172.839844 1849.453125 L 4186.460938 1808.570312 C 4186.460938 1808.570312 4129.273438 1767.746094 4129.273438 1759.492188 C 4129.273438 1752.914062 4133.433594 1646.015625 4131.292969 1606.253906 C 4148.117188 1595.859375 4155.886719 1592.367188 4173.914062 1585.496094 L 4202.824219 1579.6875 L 4349.898438 2102.894531 " fill-opacity="1" fill-rule="nonzero"/><path fill="#c0def2" d="M 4522.078125 1731.90625 L 4481.09375 1780.984375 L 4501.261719 1806.136719 C 4509.058594 1815.867188 4511.242188 1828.957031 4507.011719 1840.695312 L 4373.25 2212.152344 L 4432.175781 1560.199219 C 4432.175781 1560.199219 4469.683594 1556.128906 4532.53125 1578.449219 L 4522.078125 1731.90625 " fill-opacity="1" fill-rule="nonzero"/><path fill="#545454" d="M 4285.636719 1276.59375 C 4285.636719 1283.710938 4281.789062 1289.492188 4277.039062 1289.492188 C 4272.292969 1289.492188 4268.429688 1283.710938 4268.429688 1276.59375 C 4268.429688 1269.472656 4272.292969 1263.691406 4277.039062 1263.691406 C 4281.789062 1263.691406 4285.636719 1269.472656 4285.636719 1276.59375 " fill-opacity="1" fill-rule="nonzero"/><path fill="#545454" d="M 4182.453125 1277.183594 C 4182.453125 1284.300781 4178.601562 1290.082031 4173.855469 1290.082031 C 4169.109375 1290.082031 4165.246094 1284.300781 4165.246094 1277.183594 C 4165.246094 1270.0625 4169.109375 1264.28125 4173.855469 1264.28125 C 4178.601562 1264.28125 4182.453125 1270.0625 4182.453125 1277.183594 " fill-opacity="1" fill-rule="nonzero"/><path fill="#f6b592" d="M 4394.113281 1289.519531 C 4400.863281 1281.632812 4420.015625 1277.269531 4429.597656 1277.152344 C 4456.339844 1276.828125 4466.824219 1306.84375 4466.261719 1329.726562 C 4465.289062 1369.414062 4399.566406 1401.242188 4369.59375 1371.253906 C 4345.105469 1346.769531 4393.933594 1289.714844 4394.113281 1289.519531 " fill-opacity="1" fill-rule="nonzero"/><path fill="#f2f7f9" d="M 4496.558594 1727.324219 L 4459.4375 1771.785156 L 4484.96875 1803.644531 C 4489.4375 1809.21875 4490.691406 1816.691406 4488.273438 1823.402344 L 4351.59375 2202.953125 L 4410.519531 1551 C 4410.519531 1551 4465.246094 1554.523438 4528.09375 1576.84375 L 4501.542969 1716.796875 C 4500.804688 1720.671875 4499.09375 1724.285156 4496.558594 1727.324219 " fill-opacity="1" fill-rule="nonzero"/><path fill="#f2f7f9" d="M 4361.425781 2090.570312 L 4361.425781 2213.039062 L 4185.414062 1853.0625 C 4182.980469 1848.109375 4182.613281 1842.390625 4184.351562 1837.140625 L 4197.988281 1796.246094 C 4197.988281 1796.246094 4140.804688 1755.421875 4140.804688 1747.167969 C 4140.804688 1740.589844 4135.453125 1639.382812 4133.3125 1599.621094 C 4150.136719 1589.226562 4167.414062 1580.058594 4185.445312 1573.171875 L 4214.339844 1567.363281 L 4361.425781 2090.570312 " fill-opacity="1" fill-rule="nonzero"/><path fill="#d89371" d="M 4434.976562 2548.183594 C 4434.976562 2548.183594 4034.539062 2564.546875 4034.539062 2548.183594 C 4034.539062 2531.835938 4075.375 2491.011719 4099.832031 2491.011719 C 4124.4375 2491.011719 3985.460938 2458.28125 3944.636719 2433.824219 C 3903.667969 2409.203125 3870.953125 2384.746094 3870.953125 2384.746094 L 3870.953125 2556.441406 C 3870.953125 2556.441406 3715.757812 2572.804688 3723.867188 2548.183594 C 3732.121094 2523.726562 3772.945312 2515.46875 3781.039062 2499.105469 C 3789.144531 2483.210938 3670.808594 2111.519531 3659.191406 2005.871094 C 3658.878906 2004.027344 3658.734375 2002.347656 3658.570312 2000.667969 C 3657.507812 1987.664062 3655.519531 1973.761719 3652.910156 1959.535156 C 3636.101562 1866.125 3593.144531 1755.421875 3593.144531 1755.421875 C 3591.152344 1750.21875 3597.417969 1736.773438 3598.953125 1731.878906 C 3611.792969 1691.203125 3634.113281 1648.40625 3670.808594 1624.078125 C 3710.714844 1597.792969 3758.113281 1579.289062 3803.210938 1563.839844 C 3817.734375 1558.796875 3834.40625 1553.136719 3850.757812 1550.851562 C 3860.398438 1549.316406 3870.023438 1549.171875 3879.195312 1551 C 3890.664062 1553.300781 3897.09375 1558.339844 3900.144531 1564.605469 C 3909.476562 1583.566406 3900.304688 1610.484375 3895.558594 1629.59375 C 3886.847656 1664.753906 3874.917969 1700.386719 3854.738281 1730.800781 C 3840.980469 1751.605469 3856.269531 1818.875 3885.785156 1859.09375 C 3891.285156 1866.421875 3897.238281 1872.996094 3903.667969 1878.039062 C 3909.933594 1883.09375 3916.65625 1888.136719 3923.6875 1893.179688 C 3962.371094 1921.160156 4011.921875 1950.824219 4067.105469 1992.410156 C 4097.222656 2014.878906 4165.261719 2041.035156 4236.363281 2076.8125 C 4320 2118.859375 4407.761719 2174.515625 4443.085938 2254.023438 C 4443.839844 2255.851562 4444.765625 2257.679688 4445.519531 2259.519531 C 4506.6875 2404.765625 4434.976562 2548.183594 4434.976562 2548.183594 " fill-opacity="1" fill-rule="nonzero"/><path fill="#965b3e" d="M 3609.640625 1911.429688 C 3606.484375 1909.542969 3603.507812 1906.726562 3600.839844 1903.261719 C 3600.292969 1902.789062 3599.96875 1902.320312 3599.660156 1901.863281 C 3595.8125 1896.835938 3592.273438 1890.390625 3589.222656 1882.933594 C 3588.984375 1882.386719 3588.660156 1881.753906 3588.425781 1881.132812 C 3585.050781 1872.566406 3582.144531 1862.835938 3579.875 1852.3125 C 3579.710938 1851.605469 3579.566406 1850.824219 3579.402344 1850.113281 C 3579.402344 1849.953125 3579.328125 1849.878906 3579.328125 1849.714844 C 3579.242188 1849.246094 3579.09375 1848.773438 3579.003906 1848.226562 C 3578.148438 1844.070312 3577.441406 1839.664062 3576.808594 1835.269531 C 3576.660156 1834.636719 3576.570312 1833.941406 3576.5 1833.234375 C 3576.1875 1830.949219 3575.953125 1828.679688 3575.628906 1826.394531 C 3575.554688 1825.9375 3575.554688 1825.464844 3575.480469 1824.90625 C 3575.246094 1822.945312 3575.007812 1820.984375 3574.847656 1819.023438 C 3574.847656 1818.242188 3574.773438 1817.445312 3574.683594 1816.664062 C 3574.449219 1813.996094 3574.300781 1811.238281 3574.214844 1808.496094 C 3574.140625 1807.789062 3574.140625 1807.007812 3574.140625 1806.210938 C 3574.066406 1804.957031 3573.992188 1803.628906 3573.992188 1802.378906 C 3573.902344 1801.582031 3573.902344 1800.800781 3573.902344 1800.019531 C 3573.828125 1795.226562 3573.828125 1790.4375 3573.992188 1785.644531 C 3573.992188 1784.699219 3574.066406 1783.757812 3574.066406 1782.828125 C 3574.214844 1779.675781 3574.375 1776.460938 3574.683594 1773.320312 C 3574.773438 1771.992188 3574.921875 1770.652344 3575.007812 1769.308594 C 3578.769531 1730.523438 3591.890625 1695.65625 3617.882812 1682.621094 C 3630.988281 1676.03125 3648.574219 1677.832031 3661.535156 1684.347656 C 3689.175781 1698.25 3702.519531 1739.941406 3713.117188 1767.039062 C 3724.277344 1795.152344 3734.480469 1824.519531 3740.453125 1854.273438 C 3748.617188 1895.109375 3650.535156 1936.019531 3609.640625 1911.429688 " fill-opacity="1" fill-rule="nonzero"/><path fill="#e22b35" d="M 3921.992188 1878.597656 C 3926.621094 1882.046875 3927.328125 1888.785156 3923.304688 1892.941406 C 3881.9375 1935.652344 3782.910156 2018.992188 3647.441406 2005.769531 C 3647.117188 2003.808594 3646.9375 2002.007812 3646.777344 2000.210938 C 3645.90625 1989.535156 3644.445312 1978.289062 3642.558594 1966.757812 C 3641.644531 1961.15625 3645.523438 1955.96875 3651.109375 1955.628906 C 3705.261719 1952.414062 3818.660156 1936.050781 3883.042969 1857.691406 C 3886.683594 1853.238281 3893.304688 1852.738281 3897.09375 1857.042969 C 3900.984375 1861.464844 3905.054688 1865.445312 3909.328125 1868.792969 C 3913.382812 1872.066406 3917.613281 1875.339844 3921.992188 1878.597656 " fill-opacity="1" fill-rule="nonzero"/><path fill="#965b3e" d="M 4102.621094 2494.34375 C 4101.453125 2494.34375 4100.277344 2493.8125 4099.507812 2492.808594 C 4091.238281 2482.035156 4081.09375 2471.550781 4071.277344 2461.421875 C 4043.886719 2433.101562 4015.550781 2403.824219 4017.214844 2360.421875 C 4017.390625 2355.496094 4017.894531 2350.574219 4018.691406 2345.75 C 4025.898438 2301.847656 4056.03125 2274.011719 4101.335938 2269.414062 C 4143.871094 2265.078125 4187.109375 2279.644531 4217.007812 2308.347656 C 4218.570312 2309.851562 4218.628906 2312.34375 4217.125 2313.90625 C 4215.621094 2315.46875 4213.144531 2315.527344 4211.582031 2314.023438 C 4183.304688 2286.882812 4142.394531 2273.128906 4102.132812 2277.226562 C 4060.011719 2281.515625 4033.121094 2306.300781 4026.429688 2347.019531 C 4025.691406 2351.515625 4025.234375 2356.128906 4025.058594 2360.714844 C 4023.523438 2400.769531 4050.679688 2428.828125 4076.921875 2455.953125 C 4086.890625 2466.257812 4097.179688 2476.886719 4105.730469 2488.019531 C 4107.058594 2489.742188 4106.734375 2492.207031 4105.007812 2493.519531 C 4104.300781 2494.078125 4103.460938 2494.34375 4102.621094 2494.34375 " fill-opacity="1" fill-rule="nonzero"/><path fill="#965b3e" d="M 3918.660156 2042.90625 C 3934.507812 2024.402344 3972.707031 2036.140625 3965.957031 2063.175781 C 3959.203125 2090.199219 3979.472656 2103.703125 3999.746094 2103.703125 C 4020.015625 2103.703125 3992.976562 2130.726562 3972.707031 2130.726562 C 3952.449219 2130.726562 3878.117188 2090.199219 3918.660156 2042.90625 " fill-opacity="1" fill-rule="nonzero"/><path fill="#965b3e" d="M 4197.945312 2384.746094 C 4197.945312 2350.070312 4263.328125 2360.230469 4279.679688 2376.578125 C 4296.027344 2392.929688 4312.378906 2425.613281 4279.679688 2425.613281 C 4246.996094 2425.613281 4197.945312 2441.960938 4197.945312 2384.746094 " fill-opacity="1" fill-rule="nonzero"/><path fill="#965b3e" d="M 4445.519531 2259.519531 C 4440.476562 2259.375 4434.359375 2257.839844 4426.871094 2254.023438 C 4394.15625 2237.65625 4394.15625 2270.371094 4353.171875 2270.371094 C 4312.347656 2270.371094 4320.605469 2254.023438 4312.347656 2229.402344 C 4304.253906 2204.945312 4255.175781 2221.292969 4214.339844 2213.039062 C 4173.371094 2204.945312 4181.625 2155.863281 4230.703125 2131.390625 C 4255.324219 2119.007812 4248.894531 2096.378906 4236.363281 2076.8125 C 4320 2118.859375 4407.761719 2174.515625 4443.085938 2254.023438 C 4443.839844 2255.851562 4444.765625 2257.679688 4445.519531 2259.519531 " fill-opacity="1" fill-rule="nonzero"/><path fill="#6b3f2c" d="M 3789.277344 1706.359375 C 3795.691406 1706.386719 3801.855469 1706.636719 3807.957031 1706.726562 C 3814.046875 1706.800781 3820.046875 1706.769531 3825.871094 1706.179688 C 3831.679688 1705.605469 3837.324219 1704.5 3842.339844 1702.097656 C 3844.859375 1700.917969 3847.203125 1699.355469 3849.238281 1697.320312 C 3851.300781 1695.285156 3853.027344 1692.808594 3854.664062 1690.007812 C 3854.691406 1693.222656 3853.910156 1696.523438 3852.363281 1699.578125 C 3850.816406 1702.644531 3848.382812 1705.296875 3845.609375 1707.347656 C 3842.808594 1709.425781 3839.65625 1710.914062 3836.441406 1711.988281 C 3833.226562 1713.082031 3829.925781 1713.640625 3826.652344 1713.996094 C 3820.0625 1714.660156 3813.558594 1714.082031 3807.28125 1712.84375 C 3801.015625 1711.519531 3794.894531 1709.542969 3789.277344 1706.359375 " fill-opacity="1" fill-rule="nonzero"/><path fill="#6b3f2c" d="M 3900.144531 1564.605469 C 3891.742188 1568.425781 3868.035156 1580.542969 3857.640625 1577.035156 C 3847.085938 1573.511719 3854.28125 1557.265625 3850.757812 1550.851562 C 3860.398438 1549.316406 3870.023438 1549.171875 3879.195312 1551 C 3890.664062 1553.300781 3897.09375 1558.339844 3900.144531 1564.605469 " fill-opacity="1" fill-rule="nonzero"/><path fill="#965b3e" d="M 3871.011719 2388.667969 C 3868.84375 2388.667969 3867.089844 2386.914062 3867.089844 2384.746094 L 3867.089844 2294.84375 C 3867.089844 2292.675781 3868.84375 2290.921875 3871.011719 2290.921875 C 3873.179688 2290.921875 3874.933594 2292.675781 3874.933594 2294.84375 L 3874.933594 2384.746094 C 3874.933594 2386.914062 3873.179688 2388.667969 3871.011719 2388.667969 " fill-opacity="1" fill-rule="nonzero"/><path fill="#6b3f2c" d="M 3717.128906 1631.539062 C 3718.367188 1627.101562 3726.371094 1625.464844 3735.027344 1627.867188 C 3743.679688 1630.269531 3749.695312 1635.8125 3748.457031 1640.25 C 3747.21875 1644.703125 3739.199219 1646.339844 3730.558594 1643.9375 C 3721.90625 1641.535156 3715.890625 1635.992188 3717.128906 1631.539062 " fill-opacity="1" fill-rule="nonzero"/><path fill="#d89371" d="M 4399.007812 2458.710938 C 4399.007812 2458.710938 4520.574219 2497.675781 4577.671875 2439.5 C 4634.785156 2381.324219 4639.0625 2250.246094 4602.101562 2208.171875 C 4602.101562 2208.171875 4610.886719 2374.191406 4546.050781 2411.800781 C 4481.195312 2449.421875 4405.597656 2390.082031 4405.597656 2390.082031 L 4399.007812 2458.710938 " fill-opacity="1" fill-rule="nonzero"/><path fill="#f6b592" d="M 3677.074219 2207.730469 C 3682.808594 2223.578125 3698.671875 2233.914062 3715.476562 2232.894531 C 3733.332031 2231.820312 3764.363281 2209.070312 3764.835938 2189.539062 C 3765.085938 2179.054688 3743.265625 2152.871094 3732.0625 2164.078125 C 3732.078125 2164.0625 3781.113281 2115.027344 3764.761719 2098.675781 C 3748.414062 2082.328125 3732.0625 2090.511719 3715.726562 2090.511719 C 3699.378906 2090.511719 3756.59375 2049.644531 3723.894531 2033.292969 C 3691.195312 2016.945312 3667.636719 2055.128906 3667.636719 2055.128906 C 3667.636719 2055.128906 3707.546875 2000.59375 3658.511719 2000.59375 C 3621.109375 2000.59375 3650.253906 2133.664062 3677.074219 2207.730469 " fill-opacity="1" fill-rule="nonzero"/><g clip-path="url(#9eae90bc2b)"><path fill="#4995aa" d="M 5182.875 2550.957031 C 5183.019531 2559.359375 5177.066406 2566.242188 5169.574219 2566.390625 L 5127.074219 2567.011719 L 3495.679688 2590.703125 L 3481.304688 2590.863281 C 3481.15625 2590.863281 3481.15625 2590.863281 3480.996094 2590.863281 C 3473.667969 2590.863281 3467.699219 2584.128906 3467.550781 2575.871094 C 3467.550781 2569.753906 3470.601562 2564.5625 3474.890625 2561.953125 C 3476.71875 2560.890625 3478.710938 2560.273438 3480.847656 2560.273438 L 5158.871094 2535.976562 L 5169.265625 2535.816406 C 5176.917969 2535.976562 5182.726562 2542.390625 5182.875 2550.957031 " fill-opacity="1" fill-rule="nonzero"/></g><path fill="#e57c5c" d="M 4418.628906 1300.460938 C 4418.628906 1300.460938 4451.519531 1295.226562 4452.890625 1326.585938 " fill-opacity="1" fill-rule="nonzero"/><path fill="#f6b592" d="M 4913.730469 2398.589844 C 4913.730469 2398.589844 4876.609375 2550.070312 4844.027344 2547.386719 C 4811.445312 2544.691406 4839.605469 2501.566406 4822.578125 2509.25 C 4812.183594 2535.667969 4810.695312 2553.726562 4786.25 2551.707031 C 4761.824219 2549.6875 4774.441406 2496.1875 4774.441406 2496.1875 C 4774.441406 2496.1875 4736.640625 2556.691406 4722.59375 2528.265625 C 4708.542969 2499.828125 4735.210938 2474.75 4735.210938 2474.75 C 4735.210938 2474.75 4699.636719 2508.1875 4692.988281 2489.449219 C 4686.339844 2470.726562 4741.582031 2430.832031 4740.636719 2425.714844 C 4739.695312 2420.570312 4681.917969 2424.890625 4700.449219 2399.148438 C 4718.980469 2373.410156 4786.382812 2351.707031 4786.382812 2351.707031 L 4913.730469 2398.589844 " fill-opacity="1" fill-rule="nonzero"/><path fill="#ffdd5a" d="M 3780.242188 2018.757812 C 3780.242188 2031.953125 3769.554688 2042.65625 3756.359375 2042.65625 C 3743.164062 2042.65625 3732.460938 2031.953125 3732.460938 2018.757812 C 3732.460938 2005.5625 3743.164062 1994.859375 3756.359375 1994.859375 C 3769.554688 1994.859375 3780.242188 2005.5625 3780.242188 2018.757812 " fill-opacity="1" fill-rule="nonzero"/><path fill="#4a7493" d="M 4214.296875 1534.105469 C 4214 1534.015625 4213.707031 1533.941406 4213.308594 1533.898438 C 4211.597656 1533.75 4172.660156 1530.550781 4140.199219 1567.910156 C 4094.585938 1620.421875 4089.441406 1722.621094 4124.925781 1871.640625 C 4125.78125 1875.25 4129.007812 1877.683594 4132.546875 1877.683594 C 4133.152344 1877.683594 4133.769531 1877.609375 4134.375 1877.460938 C 4138.605469 1876.460938 4141.203125 1872.230469 4140.199219 1868.011719 C 4097.652344 1689.285156 4123.007812 1611.929688 4151.785156 1578.523438 C 4178.75 1547.195312 4211.996094 1549.554688 4213.585938 1549.6875 C 4213.882812 1549.714844 4214.074219 1549.65625 4214.296875 1549.644531 L 4214.296875 1534.105469 " fill-opacity="1" fill-rule="nonzero"/><path fill="#4a7493" d="M 4409.976562 1524.167969 L 4409.605469 1527.085938 L 4410.0625 1540.058594 C 4428.183594 1543.171875 4551.34375 1570.785156 4566.097656 1747.875 L 4581.742188 1746.578125 C 4565.066406 1546.398438 4411.523438 1524.359375 4409.976562 1524.167969 " fill-opacity="1" fill-rule="nonzero"/><path fill="#567d9b" d="M 4180.09375 1900.503906 C 4180.09375 1921.691406 4161.589844 1938.867188 4138.769531 1938.867188 C 4115.945312 1938.867188 4097.460938 1921.691406 4097.460938 1900.503906 C 4097.460938 1879.304688 4115.945312 1862.144531 4138.769531 1862.144531 C 4161.589844 1862.144531 4180.09375 1879.304688 4180.09375 1900.503906 " fill-opacity="1" fill-rule="nonzero"/><path fill="#9acded" d="M 4150.578125 1897.542969 C 4150.578125 1904.074219 4145.285156 1909.351562 4138.769531 1909.351562 C 4132.253906 1909.351562 4126.960938 1904.074219 4126.960938 1897.542969 C 4126.960938 1891.039062 4132.253906 1885.746094 4138.769531 1885.746094 C 4145.285156 1885.746094 4150.578125 1891.039062 4150.578125 1897.542969 " fill-opacity="1" fill-rule="nonzero"/><path fill="#4a7493" d="M 4527.652344 1924.492188 C 4526.351562 1919.699219 4496.175781 1806.285156 4531.527344 1757.515625 C 4541.464844 1743.804688 4555.542969 1736.390625 4573.398438 1735.460938 C 4665.582031 1730.875 4696.941406 1890.65625 4698.222656 1897.484375 L 4686.648438 1899.648438 C 4686.355469 1898.085938 4656.355469 1742.980469 4574 1747.226562 C 4559.699219 1747.960938 4548.925781 1753.59375 4541.066406 1764.429688 C 4509 1808.644531 4538.722656 1920.289062 4539.015625 1921.410156 L 4527.652344 1924.492188 " fill-opacity="1" fill-rule="nonzero"/><path fill="#416d87" d="M 4704.695312 1898.441406 C 4704.695312 1905.207031 4699.210938 1910.691406 4692.429688 1910.691406 C 4685.664062 1910.691406 4680.179688 1905.207031 4680.179688 1898.441406 C 4680.179688 1891.660156 4685.664062 1886.175781 4692.429688 1886.175781 C 4699.210938 1886.175781 4704.695312 1891.660156 4704.695312 1898.441406 " fill-opacity="1" fill-rule="nonzero"/><path fill="#416d87" d="M 4544.78125 1922.957031 C 4544.78125 1929.726562 4539.296875 1935.210938 4532.53125 1935.210938 C 4525.761719 1935.210938 4520.265625 1929.726562 4520.265625 1922.957031 C 4520.265625 1916.191406 4525.761719 1910.691406 4532.53125 1910.691406 C 4539.296875 1910.691406 4544.78125 1916.191406 4544.78125 1922.957031 " fill-opacity="1" fill-rule="nonzero"/><path fill="#515151" d="M 3642.929688 1855.140625 C 3626.285156 1868.957031 3612.144531 1885.054688 3600.839844 1903.261719 C 3600.292969 1902.789062 3599.96875 1902.320312 3599.660156 1901.863281 C 3610.894531 1884.039062 3624.867188 1868.25 3641.277344 1854.671875 C 3641.675781 1854.273438 3643.546875 1854.597656 3642.929688 1855.140625 " fill-opacity="1" fill-rule="nonzero"/><path fill="#515151" d="M 3629.660156 1836.210938 C 3614.34375 1850.261719 3600.839844 1865.816406 3589.222656 1882.933594 C 3588.984375 1882.386719 3588.660156 1881.753906 3588.425781 1881.132812 C 3599.734375 1864.636719 3612.925781 1849.554688 3627.773438 1835.902344 C 3628.246094 1835.503906 3629.96875 1835.902344 3629.660156 1836.210938 " fill-opacity="1" fill-rule="nonzero"/><path fill="#515151" d="M 3615.683594 1818.386719 C 3602.5625 1828.605469 3590.636719 1839.914062 3579.875 1852.3125 C 3579.710938 1851.605469 3579.566406 1850.824219 3579.402344 1850.113281 C 3589.765625 1838.246094 3601.308594 1827.410156 3613.945312 1817.605469 C 3614.417969 1817.296875 3616.066406 1818.078125 3615.683594 1818.386719 " fill-opacity="1" fill-rule="nonzero"/><path fill="#515151" d="M 3599.734375 1807.242188 C 3591.328125 1813.214844 3583.324219 1819.566406 3575.628906 1826.394531 C 3575.554688 1825.9375 3575.554688 1825.464844 3575.480469 1824.90625 C 3582.777344 1818.550781 3590.402344 1812.578125 3598.332031 1806.933594 C 3598.714844 1806.609375 3600.601562 1806.683594 3599.734375 1807.242188 " fill-opacity="1" fill-rule="nonzero"/><path fill="#515151" d="M 3586.625 1797.261719 C 3582.308594 1800.800781 3578.148438 1804.484375 3574.214844 1808.496094 C 3574.140625 1807.789062 3574.140625 1807.007812 3574.140625 1806.210938 C 3577.515625 1802.921875 3581.128906 1799.710938 3584.828125 1796.714844 C 3585.285156 1796.320312 3587.023438 1796.953125 3586.625 1797.261719 " fill-opacity="1" fill-rule="nonzero"/><path fill="#fcfcfc" d="M 3668.847656 1982.355469 C 3689.808594 1981.457031 3711.261719 1979.246094 3731.636719 1974.128906 C 3738.078125 1972.523438 3744.503906 1970.5625 3750.417969 1967.480469 C 3751.007812 1967.171875 3749.207031 1966.773438 3748.738281 1967.011719 C 3737.253906 1973.023438 3723.734375 1975.324219 3711.054688 1977.300781 C 3699.335938 1979.144531 3687.496094 1980.351562 3675.65625 1981.148438 C 3673.226562 1981.324219 3670.792969 1981.472656 3668.359375 1981.574219 C 3667.019531 1981.636719 3668.007812 1982.386719 3668.847656 1982.355469 " fill-opacity="1" fill-rule="nonzero"/><path fill="#fcfcfc" d="M 3759.175781 2002.921875 C 3772.472656 2005.664062 3777.132812 2021.765625 3768.785156 2031.894531 C 3768.417969 2032.335938 3770.246094 2032.925781 3770.601562 2032.484375 C 3779.933594 2021.160156 3773.253906 2005.03125 3759.335938 2002.15625 C 3758.214844 2001.9375 3758.039062 2002.703125 3759.175781 2002.921875 " fill-opacity="1" fill-rule="nonzero"/><path fill="#965b3e" d="M 3843.207031 1600.285156 C 3843.429688 1600.0625 3843.648438 1599.839844 3843.871094 1599.636719 C 3844.402344 1599.089844 3844.875 1598.542969 3844.371094 1597.792969 C 3843.855469 1597.027344 3842.382812 1596.640625 3841.601562 1596.511719 C 3840.113281 1596.257812 3838.535156 1596.230469 3837.046875 1596.496094 C 3836.589844 1596.597656 3836.117188 1596.703125 3835.660156 1596.804688 C 3834.90625 1596.996094 3834.230469 1597.320312 3833.59375 1597.75 C 3833.375 1597.96875 3833.152344 1598.191406 3832.933594 1598.410156 C 3832.386719 1598.941406 3831.914062 1599.488281 3832.429688 1600.253906 C 3832.945312 1601.007812 3834.421875 1601.390625 3835.203125 1601.523438 C 3836.691406 1601.773438 3838.253906 1601.800781 3839.742188 1601.539062 C 3840.214844 1601.433594 3840.671875 1601.332031 3841.144531 1601.226562 C 3841.882812 1601.035156 3842.574219 1600.726562 3843.207031 1600.285156 " fill-opacity="1" fill-rule="nonzero"/><path fill="#965b3e" d="M 3821.832031 1621.453125 C 3823.628906 1621.453125 3828.050781 1620.792969 3828.730469 1618.699219 C 3829.453125 1616.457031 3825.371094 1616.484375 3824.21875 1616.484375 C 3822.421875 1616.484375 3817.984375 1617.148438 3817.320312 1619.242188 C 3816.597656 1621.484375 3820.679688 1621.453125 3821.832031 1621.453125 " fill-opacity="1" fill-rule="nonzero"/><path fill="#965b3e" d="M 3840.066406 1615.882812 C 3839.847656 1616.101562 3839.640625 1616.324219 3839.417969 1616.546875 C 3838.875 1617.074219 3838.535156 1617.753906 3839.078125 1618.417969 C 3839.65625 1619.140625 3841.160156 1619.375 3841.953125 1619.433594 C 3843.457031 1619.554688 3845.035156 1619.449219 3846.480469 1619.035156 C 3847.628906 1618.726562 3848.957031 1618.34375 3849.8125 1617.472656 C 3850.035156 1617.269531 3850.253906 1617.046875 3850.476562 1616.824219 C 3851.007812 1616.292969 3851.347656 1615.617188 3850.816406 1614.9375 C 3850.226562 1614.230469 3848.722656 1613.996094 3847.925781 1613.9375 C 3846.421875 1613.816406 3844.859375 1613.921875 3843.398438 1614.320312 C 3842.265625 1614.644531 3840.921875 1615.027344 3840.066406 1615.882812 " fill-opacity="1" fill-rule="nonzero"/><g clip-path="url(#4ef161df64)"><g clip-path="url(#fb7b739409)"><g clip-path="url(#38af60a414)"><path fill="#fab51e" d="M 476.460938 -443.1875 C 476.460938 -443.1875 467.5625 -381.125 458.660156 -319.0625 C 454.6875 -291.320312 439.847656 -266.292969 417.421875 -249.488281 C 394.992188 -232.683594 366.792969 -225.46875 339.0625 -229.460938 C 339.0625 -229.460938 339.058594 -229.464844 339.054688 -229.46875 C 300.945312 -234.910156 262.253906 -225.023438 231.46875 -201.957031 C 200.679688 -178.890625 180.320312 -144.539062 174.835938 -106.429688 C 174.839844 -106.425781 174.839844 -106.421875 174.839844 -106.421875 C 170.878906 -78.6875 156.03125 -53.65625 133.601562 -36.851562 C 111.171875 -20.046875 82.972656 -12.828125 55.242188 -16.820312 C 55.242188 -16.820312 55.238281 -16.824219 55.238281 -16.828125 C 17.125 -22.269531 -21.566406 -12.382812 -52.351562 10.683594 C -83.136719 33.75 -103.5 68.101562 -108.984375 106.207031 C -108.980469 106.210938 -108.976562 106.214844 -108.976562 106.214844 C -112.941406 133.949219 -127.789062 158.984375 -150.21875 175.789062 C -172.648438 192.59375 -200.84375 199.808594 -228.574219 195.820312 C -290.632812 186.921875 -352.695312 178.019531 -352.695312 178.019531 L -358.296875 217.035156 C -358.296875 217.035156 -296.238281 225.9375 -234.179688 234.835938 C -196.066406 240.277344 -157.378906 230.390625 -126.589844 207.324219 C -95.804688 184.257812 -75.445312 149.90625 -69.960938 111.800781 C -69.960938 111.796875 -69.960938 111.796875 -69.964844 111.792969 C -66.003906 84.058594 -51.15625 59.023438 -28.726562 42.21875 C -6.296875 25.414062 21.902344 18.199219 49.632812 22.1875 C 49.636719 22.191406 49.636719 22.191406 49.640625 22.195312 C 87.75 27.640625 126.441406 17.75 157.226562 -5.316406 C 188.015625 -28.378906 208.375 -62.734375 213.859375 -100.839844 C 213.855469 -100.84375 213.855469 -100.84375 213.855469 -100.847656 C 217.816406 -128.582031 232.664062 -153.617188 255.09375 -170.421875 C 277.523438 -187.226562 305.722656 -194.441406 333.453125 -190.453125 C 333.453125 -190.449219 333.453125 -190.449219 333.457031 -190.445312 C 371.570312 -185 410.261719 -194.890625 441.046875 -217.953125 C 471.832031 -241.019531 492.207031 -275.382812 497.667969 -313.46875 C 506.566406 -375.53125 515.460938 -437.59375 515.460938 -437.59375 Z M 551.644531 -342.835938 C 551.644531 -342.835938 542.746094 -280.773438 533.84375 -218.714844 C 529.867188 -190.972656 515.03125 -165.945312 492.601562 -149.140625 C 470.171875 -132.335938 441.972656 -125.125 414.246094 -129.109375 C 414.242188 -129.113281 414.238281 -129.117188 414.234375 -129.121094 C 376.125 -134.5625 337.4375 -124.671875 306.648438 -101.605469 C 275.863281 -78.539062 255.503906 -44.1875 250.015625 -6.085938 C 250.019531 -6.082031 250.019531 -6.078125 250.023438 -6.074219 C 246.058594 21.65625 231.214844 46.695312 208.785156 63.5 C 186.355469 80.304688 158.152344 87.515625 130.425781 83.53125 C 130.421875 83.527344 130.417969 83.523438 130.417969 83.519531 C 92.308594 78.078125 53.617188 87.96875 22.832031 111.03125 C -7.957031 134.097656 -28.316406 168.449219 -33.804688 206.554688 C -33.800781 206.558594 -33.796875 206.5625 -33.792969 206.566406 C -37.761719 234.296875 -52.605469 259.335938 -75.035156 276.136719 C -97.464844 292.941406 -125.664062 300.15625 -153.394531 296.167969 C -215.449219 287.273438 -277.511719 278.371094 -277.511719 278.371094 L -283.113281 317.386719 C -283.113281 317.386719 -221.058594 326.28125 -158.996094 335.183594 C -120.882812 340.628906 -82.195312 330.738281 -51.410156 307.675781 C -20.621094 284.609375 -0.261719 250.257812 5.222656 212.148438 C 5.21875 212.144531 5.21875 212.140625 5.214844 212.136719 C 9.179688 184.40625 24.027344 159.371094 46.457031 142.566406 C 68.886719 125.765625 97.085938 118.546875 124.8125 122.535156 C 124.816406 122.539062 124.820312 122.542969 124.820312 122.546875 C 162.933594 127.988281 201.625 118.101562 232.410156 95.035156 C 263.195312 71.96875 283.558594 37.617188 289.042969 -0.488281 C 289.039062 -0.492188 289.035156 -0.496094 289.035156 -0.5 C 293 -28.234375 307.847656 -53.265625 330.277344 -70.070312 C 352.707031 -86.875 380.902344 -94.09375 408.632812 -90.105469 C 408.636719 -90.101562 408.636719 -90.097656 408.640625 -90.09375 C 446.753906 -84.652344 485.441406 -94.539062 516.230469 -117.605469 C 547.015625 -140.671875 567.386719 -175.03125 572.851562 -213.121094 C 581.75 -275.183594 590.644531 -337.242188 590.644531 -337.242188 Z M 626.824219 -242.492188 C 626.824219 -242.492188 617.925781 -180.425781 609.027344 -118.363281 C 605.046875 -90.625 590.210938 -65.597656 567.78125 -48.792969 C 545.351562 -31.988281 517.15625 -24.773438 489.429688 -28.757812 C 489.425781 -28.761719 489.421875 -28.765625 489.417969 -28.769531 C 451.304688 -34.214844 412.617188 -24.328125 381.828125 -1.261719 C 351.042969 21.804688 330.683594 56.15625 325.199219 94.265625 L 325.207031 94.277344 C 321.242188 122.007812 306.394531 147.039062 283.964844 163.84375 C 261.535156 180.648438 233.335938 187.867188 205.609375 183.878906 C 205.605469 183.875 205.601562 183.871094 205.597656 183.867188 C 167.488281 178.425781 128.796875 188.3125 98.011719 211.378906 C 67.222656 234.445312 46.863281 268.796875 41.378906 306.902344 C 41.382812 306.90625 41.386719 306.910156 41.386719 306.914062 C 37.421875 334.644531 22.574219 359.679688 0.144531 376.484375 C -22.285156 393.289062 -50.484375 400.503906 -78.210938 396.519531 C -140.269531 387.617188 -202.332031 378.714844 -202.332031 378.714844 L -207.933594 417.730469 C -207.933594 417.730469 -145.875 426.632812 -83.816406 435.535156 C -45.703125 440.972656 -7.015625 431.085938 23.769531 408.019531 C 54.558594 384.953125 74.917969 350.601562 80.40625 312.5 C 80.402344 312.496094 80.398438 312.492188 80.398438 312.488281 C 84.363281 284.757812 99.207031 259.71875 121.636719 242.914062 C 144.066406 226.109375 172.269531 218.898438 199.996094 222.882812 C 200 222.886719 200 222.890625 200.003906 222.894531 C 238.113281 228.335938 276.804688 218.445312 307.589844 195.378906 C 338.375 172.316406 358.738281 137.960938 364.226562 99.859375 C 364.222656 99.855469 364.21875 99.851562 364.214844 99.847656 C 368.179688 72.117188 383.027344 47.078125 405.457031 30.273438 C 427.886719 13.46875 456.085938 6.257812 483.816406 10.242188 C 483.816406 10.246094 483.820312 10.25 483.824219 10.253906 C 521.933594 15.695312 560.621094 5.804688 591.410156 -17.257812 C 622.195312 -40.324219 642.566406 -74.683594 648.03125 -112.769531 C 656.929688 -174.835938 665.824219 -236.894531 665.824219 -236.894531 Z M 702.003906 -142.140625 C 702.003906 -142.140625 693.105469 -80.078125 684.207031 -18.015625 C 680.230469 9.726562 665.394531 34.75 642.964844 51.554688 C 620.535156 68.359375 592.339844 75.578125 564.609375 71.585938 C 564.605469 71.582031 564.605469 71.582031 564.601562 71.578125 C 526.488281 66.136719 487.800781 76.023438 457.011719 99.089844 C 426.226562 122.15625 405.867188 156.507812 400.378906 194.613281 C 400.382812 194.617188 400.382812 194.617188 400.386719 194.621094 C 396.425781 222.355469 381.574219 247.390625 359.144531 264.195312 C 336.71875 281 308.519531 288.214844 280.789062 284.226562 C 280.785156 284.222656 280.785156 284.222656 280.78125 284.21875 C 242.667969 278.773438 203.980469 288.664062 173.195312 311.726562 C 142.40625 334.792969 122.046875 369.144531 116.5625 407.253906 C 116.566406 407.257812 116.566406 407.257812 116.566406 407.261719 C 112.605469 434.996094 97.757812 460.03125 75.328125 476.835938 C 52.898438 493.636719 24.699219 500.855469 -3.03125 496.863281 C -65.089844 487.96875 -127.148438 479.066406 -127.148438 479.066406 L -132.753906 518.082031 C -132.753906 518.082031 -70.691406 526.984375 -8.636719 535.878906 C 29.476562 541.324219 68.167969 531.433594 98.953125 508.371094 C 129.742188 485.304688 150.101562 450.953125 155.585938 412.84375 C 155.582031 412.839844 155.578125 412.835938 155.578125 412.835938 C 159.542969 385.101562 174.390625 360.066406 196.820312 343.265625 C 219.25 326.460938 247.449219 319.242188 275.179688 323.234375 C 275.179688 323.234375 275.179688 323.238281 275.183594 323.242188 C 313.296875 328.683594 351.984375 318.796875 382.773438 295.730469 C 413.558594 272.664062 433.921875 238.3125 439.40625 200.207031 C 439.402344 200.203125 439.398438 200.199219 439.398438 200.199219 C 443.359375 172.460938 458.210938 147.429688 480.640625 130.625 C 503.070312 113.820312 531.265625 106.605469 558.996094 110.59375 C 558.996094 110.59375 559 110.597656 559.003906 110.601562 C 597.117188 116.042969 635.804688 106.15625 666.59375 83.089844 C 697.378906 60.027344 717.75 25.664062 723.210938 -12.425781 C 732.113281 -74.484375 741.007812 -136.546875 741.007812 -136.546875 Z M 777.1875 -41.792969 C 777.1875 -41.792969 768.285156 20.269531 759.386719 82.332031 C 755.410156 110.070312 740.578125 135.101562 718.148438 151.90625 C 695.71875 168.710938 667.519531 175.921875 639.789062 171.9375 C 639.789062 171.933594 639.785156 171.929688 639.78125 171.925781 C 601.671875 166.484375 562.980469 176.371094 532.191406 199.433594 C 501.40625 222.5 481.046875 256.855469 475.5625 294.960938 C 475.5625 294.964844 475.566406 294.96875 475.570312 294.972656 C 471.605469 322.703125 456.757812 347.742188 434.328125 364.542969 C 411.898438 381.347656 383.699219 388.5625 355.972656 384.574219 C 355.96875 384.570312 355.964844 384.566406 355.960938 384.5625 C 317.851562 379.125 279.160156 389.007812 248.375 412.074219 C 217.585938 435.140625 197.230469 469.496094 191.742188 507.597656 C 191.746094 507.601562 191.746094 507.605469 191.75 507.609375 C 187.785156 535.339844 172.9375 560.378906 150.511719 577.183594 C 128.082031 593.988281 99.878906 601.199219 72.152344 597.214844 C 10.089844 588.3125 -51.964844 579.414062 -51.964844 579.414062 L -57.574219 618.425781 C -57.574219 618.425781 4.488281 627.328125 66.546875 636.230469 C 104.65625 641.667969 143.351562 631.785156 174.136719 608.71875 C 204.921875 585.652344 225.28125 551.296875 230.769531 513.195312 C 230.765625 513.191406 230.761719 513.1875 230.757812 513.183594 C 234.726562 485.453125 249.570312 460.414062 272 443.609375 C 294.429688 426.804688 322.628906 419.59375 350.359375 423.578125 C 350.359375 423.582031 350.363281 423.585938 350.367188 423.589844 C 388.476562 429.03125 427.167969 419.144531 457.957031 396.078125 C 488.742188 373.015625 509.101562 338.660156 514.585938 300.554688 C 514.585938 300.550781 514.582031 300.546875 514.578125 300.542969 C 518.542969 272.8125 533.390625 247.773438 555.820312 230.96875 C 578.25 214.167969 606.449219 206.953125 634.175781 210.9375 C 634.179688 210.941406 634.183594 210.949219 634.1875 210.953125 C 672.296875 216.390625 710.988281 206.507812 741.773438 183.441406 C 772.5625 160.375 792.929688 126.011719 798.394531 87.925781 C 807.292969 25.859375 816.1875 -36.199219 816.1875 -36.199219 Z M 777.1875 -41.792969 " fill-opacity="1" fill-rule="evenodd"/></g></g></g><g clip-path="url(#cfa1751657)"><g clip-path="url(#de7b8b8a55)"><g clip-path="url(#a92d99dab7)"><path fill="#fab51e" d="M -349.367188 1848.871094 L 424.484375 1921.988281 L 351.367188 2695.839844 L -422.488281 2622.722656 Z M -349.367188 1848.871094 " fill-opacity="1" fill-rule="nonzero"/></g></g></g><g clip-path="url(#34810158be)"><g clip-path="url(#d7b5de3580)"><g clip-path="url(#e3ce29b81f)"><path fill="#e19c05" d="M -20.761719 2167.515625 L 753.089844 2240.632812 L 679.972656 3014.488281 L -93.878906 2941.367188 Z M -20.761719 2167.515625 " fill-opacity="1" fill-rule="nonzero"/></g></g></g><g clip-path="url(#f81d28cac4)"><g clip-path="url(#c75dbbbc25)"><g clip-path="url(#63a0e13100)"><path fill="#fbc650" d="M -349.367188 2109.59375 L 424.484375 2182.710938 L 351.367188 2956.566406 L -422.488281 2883.445312 Z M -349.367188 2109.59375 " fill-opacity="1" fill-rule="nonzero"/></g></g></g></svg>